<svg width="95" height="104" viewBox="0 0 95 104" fill="none" xmlns="http://www.w3.org/2000/svg">
<path d="M71.9637 35.2468C71.9605 35.2468 71.9573 35.2464 71.9541 35.2464L58.1135 35.2464L58.1135 33.7199C58.1135 31.1948 56.059 29.1403 53.5339 29.1403L41.3215 29.1403C38.7964 29.1403 36.7419 31.1948 36.7419 33.7199L36.7419 35.2464L22.9013 35.2464C22.0514 35.2464 21.3748 35.9429 21.3748 36.773L21.3748 70.3569C21.3748 72.882 23.4292 74.9365 25.9544 74.9365L68.901 74.9365C71.4262 74.9365 73.4807 72.882 73.4807 70.3569L73.4807 36.8052L73.4807 36.7992C73.4222 35.7966 72.8056 35.2524 71.9637 35.2468ZM39.795 33.7199C39.795 32.8783 40.48 32.1934 41.3215 32.1934L53.5339 32.1934C54.3755 32.1934 55.0604 32.8783 55.0604 33.7199L55.0604 35.2464L39.795 35.2464L39.795 33.7199ZM69.836 38.2995L65.0954 52.521C64.8875 53.1455 64.3055 53.5649 63.6476 53.5649L55.0604 53.5649L55.0604 52.0384C55.0604 51.1952 54.377 50.5119 53.5339 50.5119L41.3215 50.5119C40.4784 50.5119 39.795 51.1952 39.795 52.0384L39.795 53.5649L31.2078 53.5649C30.5499 53.5649 29.9679 53.1455 29.76 52.521L25.0194 38.2995L69.836 38.2995ZM52.0073 53.5649L52.0073 56.618L42.8481 56.618L42.8481 53.5649L52.0073 53.5649ZM70.4276 70.3569C70.4276 71.1985 69.7426 71.8834 68.901 71.8834L25.9544 71.8834C25.1128 71.8834 24.4278 71.1985 24.4278 70.3569L24.4278 46.1799L26.8635 53.4866C27.4877 55.3598 29.2337 56.618 31.2078 56.618L39.795 56.618L39.795 58.1446C39.795 58.9877 40.4784 59.6711 41.3215 59.6711L53.5339 59.6711C54.377 59.6711 55.0604 58.9877 55.0604 58.1446L55.0604 56.618L63.6476 56.618C65.6218 56.618 67.3677 55.3598 67.9919 53.4866L70.4276 46.1799L70.4276 70.3569Z" fill="#004439"/>
</svg>
